<svg id="visual" viewBox="0 0 960 300" width="960" height="300" xmlns="http://www.w3.org/2000/svg"
  xmlns:xlink="http://www.w3.org/1999/xlink" version="1.1">
  <rect x="0" y="0" width="960" height="300" fill="#0f0f10"></rect>
  <path
    d="M0 224L17.8 216C35.7 208 71.3 192 106.8 183.3C142.3 174.7 177.7 173.3 213.2 180.3C248.7 187.3 284.3 202.7 320 204.3C355.7 206 391.3 194 426.8 182C462.3 170 497.7 158 533.2 167.3C568.7 176.7 604.3 207.3 640 211.3C675.7 215.3 711.3 192.7 746.8 183.2C782.3 173.7 817.7 177.3 853.2 173.7C888.7 170 924.3 159 942.2 153.5L960 148L960 0L942.2 0C924.3 0 888.7 0 853.2 0C817.7 0 782.3 0 746.8 0C711.3 0 675.7 0 640 0C604.3 0 568.7 0 533.2 0C497.7 0 462.3 0 426.8 0C391.3 0 355.7 0 320 0C284.3 0 248.7 0 213.2 0C177.7 0 142.3 0 106.8 0C71.3 0 35.7 0 17.8 0L0 0Z"
    fill="#2da34a"></path>
  <path
    d="M0 172L17.8 164.3C35.7 156.7 71.3 141.3 106.8 143C142.3 144.7 177.7 163.3 213.2 167.7C248.7 172 284.3 162 320 157.7C355.7 153.3 391.3 154.7 426.8 154C462.3 153.3 497.7 150.7 533.2 154.5C568.7 158.3 604.3 168.7 640 169C675.7 169.3 711.3 159.7 746.8 153.5C782.3 147.3 817.7 144.7 853.2 144.8C888.7 145 924.3 148 942.2 149.5L960 151L960 0L942.2 0C924.3 0 888.7 0 853.2 0C817.7 0 782.3 0 746.8 0C711.3 0 675.7 0 640 0C604.3 0 568.7 0 533.2 0C497.7 0 462.3 0 426.8 0C391.3 0 355.7 0 320 0C284.3 0 248.7 0 213.2 0C177.7 0 142.3 0 106.8 0C71.3 0 35.7 0 17.8 0L0 0Z"
    fill="#64a12d"></path>
  <path
    d="M0 166L17.8 157.5C35.7 149 71.3 132 106.8 130.8C142.3 129.7 177.7 144.3 213.2 144.7C248.7 145 284.3 131 320 125C355.7 119 391.3 121 426.8 119C462.3 117 497.7 111 533.2 115.7C568.7 120.3 604.3 135.7 640 135.2C675.7 134.7 711.3 118.3 746.8 120C782.3 121.7 817.7 141.3 853.2 146.7C888.7 152 924.3 143 942.2 138.5L960 134L960 0L942.2 0C924.3 0 888.7 0 853.2 0C817.7 0 782.3 0 746.8 0C711.3 0 675.7 0 640 0C604.3 0 568.7 0 533.2 0C497.7 0 462.3 0 426.8 0C391.3 0 355.7 0 320 0C284.3 0 248.7 0 213.2 0C177.7 0 142.3 0 106.8 0C71.3 0 35.7 0 17.8 0L0 0Z"
    fill="#8b9d0f"></path>
  <path
    d="M0 79L17.8 86C35.7 93 71.3 107 106.8 106.5C142.3 106 177.7 91 213.2 88.7C248.7 86.3 284.3 96.7 320 103.3C355.7 110 391.3 113 426.8 113.7C462.3 114.3 497.7 112.7 533.2 109.3C568.7 106 604.3 101 640 101.3C675.7 101.7 711.3 107.3 746.8 103.5C782.3 99.7 817.7 86.3 853.2 79.7C888.7 73 924.3 73 942.2 73L960 73L960 0L942.2 0C924.3 0 888.7 0 853.2 0C817.7 0 782.3 0 746.8 0C711.3 0 675.7 0 640 0C604.3 0 568.7 0 533.2 0C497.7 0 462.3 0 426.8 0C391.3 0 355.7 0 320 0C284.3 0 248.7 0 213.2 0C177.7 0 142.3 0 106.8 0C71.3 0 35.7 0 17.8 0L0 0Z"
    fill="#af9600"></path>
  <path
    d="M0 46L17.8 47C35.7 48 71.3 50 106.8 54.2C142.3 58.3 177.7 64.7 213.2 69.5C248.7 74.3 284.3 77.7 320 79.8C355.7 82 391.3 83 426.8 79.5C462.3 76 497.7 68 533.2 63.8C568.7 59.7 604.3 59.3 640 61C675.7 62.7 711.3 66.3 746.8 63.5C782.3 60.7 817.7 51.3 853.2 47C888.7 42.7 924.3 43.3 942.2 43.7L960 44L960 0L942.2 0C924.3 0 888.7 0 853.2 0C817.7 0 782.3 0 746.8 0C711.3 0 675.7 0 640 0C604.3 0 568.7 0 533.2 0C497.7 0 462.3 0 426.8 0C391.3 0 355.7 0 320 0C284.3 0 248.7 0 213.2 0C177.7 0 142.3 0 106.8 0C71.3 0 35.7 0 17.8 0L0 0Z"
    fill="#d38a00"></path>
  <path
    d="M0 37L17.8 38C35.7 39 71.3 41 106.8 44.2C142.3 47.3 177.7 51.7 213.2 53.5C248.7 55.3 284.3 54.7 320 54.7C355.7 54.7 391.3 55.3 426.8 48.7C462.3 42 497.7 28 533.2 27.5C568.7 27 604.3 40 640 46.3C675.7 52.7 711.3 52.3 746.8 52C782.3 51.7 817.7 51.3 853.2 46.7C888.7 42 924.3 33 942.2 28.5L960 24L960 0L942.2 0C924.3 0 888.7 0 853.2 0C817.7 0 782.3 0 746.8 0C711.3 0 675.7 0 640 0C604.3 0 568.7 0 533.2 0C497.7 0 462.3 0 426.8 0C391.3 0 355.7 0 320 0C284.3 0 248.7 0 213.2 0C177.7 0 142.3 0 106.8 0C71.3 0 35.7 0 17.8 0L0 0Z"
    fill="#f7770f"></path>
</svg>